<?xml version="1.0" encoding="UTF-8"?>
<svg xmlns="http://www.w3.org/2000/svg" xmlns:xlink="http://www.w3.org/1999/xlink" width="144pt" height="144pt" viewBox="0 0 144 144" version="1.1">
<g id="surface1">
<path style=" stroke:none;fill-rule:nonzero;fill:rgb(100%,100%,100%);fill-opacity:1;" d="M 105.898438 38.101562 C 97.199219 29.398438 85.261719 24 72 24 C 45.480469 24 24.058594 45.480469 24.058594 72 C 24.058594 98.519531 45.480469 120 72 120 C 94.378906 120 113.039062 104.699219 118.378906 84 L 105.898438 84 C 100.980469 97.980469 87.660156 108 72 108 C 52.140625 108 36 91.859375 36 72 C 36 52.140625 52.140625 36 72 36 C 81.960938 36 90.839844 40.140625 97.320312 46.679688 L 78 66 L 120 66 L 120 24 Z M 105.898438 38.101562 "/>
</g>
</svg>
